<mxfile host="app.diagrams.net" modified="2023-10-22T01:14:51.257Z" agent="Mozilla/5.0 (Windows NT 10.0; Win64; x64) AppleWebKit/537.36 (KHTML, like Gecko) Chrome/118.0.0.0 Safari/537.36" etag="njx5Fan05Qz8Y6Q1mutC" version="22.0.6" type="device">
  <diagram name="Page-1" id="lz4fJfnYqVWKUIfRryrV">
    <mxGraphModel dx="8870" dy="3790" grid="1" gridSize="10" guides="1" tooltips="1" connect="1" arrows="1" fold="1" page="1" pageScale="1" pageWidth="850" pageHeight="1100" math="0" shadow="0">
      <root>
        <mxCell id="0" />
        <mxCell id="1" parent="0" />
        <mxCell id="JyIYTZx6x3SHaWZrT98X-10" value="" style="rounded=0;whiteSpace=wrap;html=1;" parent="1" vertex="1">
          <mxGeometry x="-400" y="162.5" width="1920" height="1080" as="geometry" />
        </mxCell>
        <mxCell id="JyIYTZx6x3SHaWZrT98X-12" value="&lt;font style=&quot;font-size: 20px;&quot;&gt;LOGO&lt;/font&gt;" style="ellipse;whiteSpace=wrap;html=1;aspect=fixed;strokeColor=#666666;fillColor=#f5f5f5;fontStyle=1;fontColor=#333333;" parent="1" vertex="1">
          <mxGeometry x="480" y="192.5" width="120" height="120" as="geometry" />
        </mxCell>
        <mxCell id="JyIYTZx6x3SHaWZrT98X-20" value="HOME" style="text;html=1;strokeColor=none;fillColor=none;align=center;verticalAlign=middle;whiteSpace=wrap;rounded=0;fontSize=25;labelBorderColor=none;fontStyle=1" parent="1" vertex="1">
          <mxGeometry x="-170" y="240" width="80" height="25" as="geometry" />
        </mxCell>
        <mxCell id="JyIYTZx6x3SHaWZrT98X-24" value="ABOUT" style="text;html=1;strokeColor=none;fillColor=none;align=center;verticalAlign=middle;whiteSpace=wrap;rounded=0;fontSize=25;labelBorderColor=none;fontStyle=1" parent="1" vertex="1">
          <mxGeometry x="150" y="240" width="110" height="25" as="geometry" />
        </mxCell>
        <mxCell id="B1aqe8g8T1IVAEfMA5Qo-6" value="WORK" style="text;html=1;strokeColor=none;fillColor=none;align=center;verticalAlign=middle;whiteSpace=wrap;rounded=0;fontSize=25;labelBorderColor=none;fontStyle=1" vertex="1" parent="1">
          <mxGeometry x="915" y="240" width="80" height="25" as="geometry" />
        </mxCell>
        <mxCell id="B1aqe8g8T1IVAEfMA5Qo-7" value="CONTACT" style="text;html=1;strokeColor=none;fillColor=none;align=center;verticalAlign=middle;whiteSpace=wrap;rounded=0;fontSize=25;labelBorderColor=none;fontStyle=1" vertex="1" parent="1">
          <mxGeometry x="1235" y="240" width="110" height="25" as="geometry" />
        </mxCell>
        <mxCell id="B1aqe8g8T1IVAEfMA5Qo-9" value="" style="rounded=0;whiteSpace=wrap;html=1;fillColor=#FFEDFE;strokeColor=none;" vertex="1" parent="1">
          <mxGeometry x="-290" y="372.5" width="1700" height="730" as="geometry" />
        </mxCell>
        <mxCell id="B1aqe8g8T1IVAEfMA5Qo-10" value="&lt;font style=&quot;font-size: 25px;&quot;&gt;PHOTO&lt;/font&gt;" style="whiteSpace=wrap;html=1;aspect=fixed;fontStyle=1" vertex="1" parent="1">
          <mxGeometry x="350" y="527.5" width="420" height="420" as="geometry" />
        </mxCell>
        <mxCell id="B1aqe8g8T1IVAEfMA5Qo-11" value="NAME" style="text;html=1;strokeColor=none;fillColor=none;align=center;verticalAlign=middle;whiteSpace=wrap;rounded=0;fontSize=40;labelBorderColor=none;fontStyle=1" vertex="1" parent="1">
          <mxGeometry x="10" y="725" width="80" height="25" as="geometry" />
        </mxCell>
        <mxCell id="B1aqe8g8T1IVAEfMA5Qo-12" value="TITLE" style="text;html=1;strokeColor=none;fillColor=none;align=center;verticalAlign=middle;whiteSpace=wrap;rounded=0;fontSize=40;labelBorderColor=none;fontStyle=1" vertex="1" parent="1">
          <mxGeometry x="1080" y="725" width="80" height="25" as="geometry" />
        </mxCell>
        <mxCell id="B1aqe8g8T1IVAEfMA5Qo-13" value="LINKS" style="text;html=1;strokeColor=none;fillColor=none;align=center;verticalAlign=middle;whiteSpace=wrap;rounded=0;fontSize=25;labelBorderColor=none;fontStyle=1" vertex="1" parent="1">
          <mxGeometry x="505" y="1162.5" width="110" height="25" as="geometry" />
        </mxCell>
        <mxCell id="B1aqe8g8T1IVAEfMA5Qo-113" style="edgeStyle=orthogonalEdgeStyle;rounded=0;orthogonalLoop=1;jettySize=auto;html=1;entryX=0.5;entryY=0;entryDx=0;entryDy=0;fillColor=#e1d5e7;strokeColor=#9673a6;strokeWidth=8;" edge="1" parent="1" source="B1aqe8g8T1IVAEfMA5Qo-14" target="JyIYTZx6x3SHaWZrT98X-10">
          <mxGeometry relative="1" as="geometry">
            <Array as="points">
              <mxPoint x="1558" y="90" />
              <mxPoint x="560" y="90" />
            </Array>
          </mxGeometry>
        </mxCell>
        <mxCell id="B1aqe8g8T1IVAEfMA5Qo-14" value="" style="rounded=0;whiteSpace=wrap;html=1;rotation=-90;" vertex="1" parent="1">
          <mxGeometry x="1336.25" y="416.25" width="1085" height="567.5" as="geometry" />
        </mxCell>
        <mxCell id="B1aqe8g8T1IVAEfMA5Qo-15" value="&lt;font style=&quot;font-size: 20px;&quot;&gt;LOGO&lt;/font&gt;" style="ellipse;whiteSpace=wrap;html=1;aspect=fixed;strokeColor=#666666;fillColor=#f5f5f5;fontStyle=1;fontColor=#333333;" vertex="1" parent="1">
          <mxGeometry x="2020" y="192.5" width="120" height="120" as="geometry" />
        </mxCell>
        <mxCell id="B1aqe8g8T1IVAEfMA5Qo-16" value="MENU" style="rounded=0;whiteSpace=wrap;html=1;fontSize=25;fontStyle=1" vertex="1" parent="1">
          <mxGeometry x="1620" y="222.5" width="100" height="60" as="geometry" />
        </mxCell>
        <mxCell id="B1aqe8g8T1IVAEfMA5Qo-17" value="" style="rounded=0;whiteSpace=wrap;html=1;fillColor=#FFEDFE;strokeColor=none;" vertex="1" parent="1">
          <mxGeometry x="1618.5" y="357.5" width="521.5" height="860" as="geometry" />
        </mxCell>
        <mxCell id="B1aqe8g8T1IVAEfMA5Qo-18" value="&lt;font style=&quot;font-size: 25px;&quot;&gt;PHOTO&lt;/font&gt;" style="whiteSpace=wrap;html=1;aspect=fixed;fontStyle=1" vertex="1" parent="1">
          <mxGeometry x="1669.25" y="400" width="420" height="420" as="geometry" />
        </mxCell>
        <mxCell id="B1aqe8g8T1IVAEfMA5Qo-19" value="NAME" style="text;html=1;strokeColor=none;fillColor=none;align=center;verticalAlign=middle;whiteSpace=wrap;rounded=0;fontSize=40;labelBorderColor=none;fontStyle=1" vertex="1" parent="1">
          <mxGeometry x="1687" y="835" width="80" height="25" as="geometry" />
        </mxCell>
        <mxCell id="B1aqe8g8T1IVAEfMA5Qo-20" value="TITLE" style="text;html=1;strokeColor=none;fillColor=none;align=center;verticalAlign=middle;whiteSpace=wrap;rounded=0;fontSize=26;labelBorderColor=none;fontStyle=3;fontColor=#474747;" vertex="1" parent="1">
          <mxGeometry x="1665" y="871.5" width="80" height="25" as="geometry" />
        </mxCell>
        <mxCell id="B1aqe8g8T1IVAEfMA5Qo-23" value="" style="rounded=0;whiteSpace=wrap;html=1;" vertex="1" parent="1">
          <mxGeometry x="-400" y="1360" width="1920" height="1080" as="geometry" />
        </mxCell>
        <mxCell id="B1aqe8g8T1IVAEfMA5Qo-24" value="&lt;font style=&quot;font-size: 20px;&quot;&gt;LOGO&lt;/font&gt;" style="ellipse;whiteSpace=wrap;html=1;aspect=fixed;strokeColor=#666666;fillColor=#f5f5f5;fontStyle=1;fontColor=#333333;" vertex="1" parent="1">
          <mxGeometry x="480" y="1390" width="120" height="120" as="geometry" />
        </mxCell>
        <mxCell id="B1aqe8g8T1IVAEfMA5Qo-25" value="HOME" style="text;html=1;strokeColor=none;fillColor=none;align=center;verticalAlign=middle;whiteSpace=wrap;rounded=0;fontSize=25;labelBorderColor=none;fontStyle=1" vertex="1" parent="1">
          <mxGeometry x="-170" y="1437.5" width="80" height="25" as="geometry" />
        </mxCell>
        <mxCell id="B1aqe8g8T1IVAEfMA5Qo-26" value="ABOUT" style="text;html=1;strokeColor=none;fillColor=none;align=center;verticalAlign=middle;whiteSpace=wrap;rounded=0;fontSize=25;labelBorderColor=none;fontStyle=1" vertex="1" parent="1">
          <mxGeometry x="150" y="1437.5" width="110" height="25" as="geometry" />
        </mxCell>
        <mxCell id="B1aqe8g8T1IVAEfMA5Qo-27" value="WORK" style="text;html=1;strokeColor=none;fillColor=none;align=center;verticalAlign=middle;whiteSpace=wrap;rounded=0;fontSize=25;labelBorderColor=none;fontStyle=1" vertex="1" parent="1">
          <mxGeometry x="915" y="1437.5" width="80" height="25" as="geometry" />
        </mxCell>
        <mxCell id="B1aqe8g8T1IVAEfMA5Qo-28" value="CONTACT" style="text;html=1;strokeColor=none;fillColor=none;align=center;verticalAlign=middle;whiteSpace=wrap;rounded=0;fontSize=25;labelBorderColor=none;fontStyle=1" vertex="1" parent="1">
          <mxGeometry x="1235" y="1437.5" width="110" height="25" as="geometry" />
        </mxCell>
        <mxCell id="B1aqe8g8T1IVAEfMA5Qo-29" value="" style="rounded=0;whiteSpace=wrap;html=1;fillColor=#FFEDFE;strokeColor=none;" vertex="1" parent="1">
          <mxGeometry x="-290" y="1570" width="1700" height="730" as="geometry" />
        </mxCell>
        <mxCell id="B1aqe8g8T1IVAEfMA5Qo-31" value="HEADING" style="text;html=1;strokeColor=none;fillColor=none;align=center;verticalAlign=middle;whiteSpace=wrap;rounded=0;fontSize=40;labelBorderColor=none;fontStyle=1" vertex="1" parent="1">
          <mxGeometry x="80" y="1670" width="80" height="25" as="geometry" />
        </mxCell>
        <mxCell id="B1aqe8g8T1IVAEfMA5Qo-32" value="HEADING" style="text;html=1;strokeColor=none;fillColor=none;align=center;verticalAlign=middle;whiteSpace=wrap;rounded=0;fontSize=40;labelBorderColor=none;fontStyle=1" vertex="1" parent="1">
          <mxGeometry x="950" y="1670" width="80" height="25" as="geometry" />
        </mxCell>
        <mxCell id="B1aqe8g8T1IVAEfMA5Qo-33" value="LINKS" style="text;html=1;strokeColor=none;fillColor=none;align=center;verticalAlign=middle;whiteSpace=wrap;rounded=0;fontSize=25;labelBorderColor=none;fontStyle=1" vertex="1" parent="1">
          <mxGeometry x="505" y="2360" width="110" height="25" as="geometry" />
        </mxCell>
        <mxCell id="B1aqe8g8T1IVAEfMA5Qo-34" value="" style="rounded=0;whiteSpace=wrap;html=1;rotation=-90;" vertex="1" parent="1">
          <mxGeometry x="-1580.0000000000002" y="1460.95" width="1555" height="568.12" as="geometry" />
        </mxCell>
        <mxCell id="B1aqe8g8T1IVAEfMA5Qo-35" value="&lt;font style=&quot;font-size: 20px;&quot;&gt;LOGO&lt;/font&gt;" style="ellipse;whiteSpace=wrap;html=1;aspect=fixed;strokeColor=#666666;fillColor=#f5f5f5;fontStyle=1;fontColor=#333333;" vertex="1" parent="1">
          <mxGeometry x="-661.5700000000002" y="1010" width="120" height="120" as="geometry" />
        </mxCell>
        <mxCell id="B1aqe8g8T1IVAEfMA5Qo-36" value="MENU" style="rounded=0;whiteSpace=wrap;html=1;fontSize=25;fontStyle=1" vertex="1" parent="1">
          <mxGeometry x="-1061.5700000000002" y="1030" width="100" height="60" as="geometry" />
        </mxCell>
        <mxCell id="B1aqe8g8T1IVAEfMA5Qo-37" value="" style="rounded=0;whiteSpace=wrap;html=1;fillColor=#FFEDFE;strokeColor=none;" vertex="1" parent="1">
          <mxGeometry x="-1061.5700000000002" y="1167.5" width="520" height="1322.5" as="geometry" />
        </mxCell>
        <mxCell id="B1aqe8g8T1IVAEfMA5Qo-44" value="TEXT" style="rounded=0;whiteSpace=wrap;html=1;fillColor=none;fontSize=25;fontStyle=1" vertex="1" parent="1">
          <mxGeometry x="-190" y="1767.5" width="690" height="452.5" as="geometry" />
        </mxCell>
        <mxCell id="B1aqe8g8T1IVAEfMA5Qo-45" value="TEXT" style="rounded=0;whiteSpace=wrap;html=1;fillColor=none;fontSize=25;fontStyle=1" vertex="1" parent="1">
          <mxGeometry x="645" y="1767.5" width="690" height="452.5" as="geometry" />
        </mxCell>
        <mxCell id="B1aqe8g8T1IVAEfMA5Qo-46" value="" style="rounded=0;whiteSpace=wrap;html=1;fillColor=none;" vertex="1" parent="1">
          <mxGeometry x="145" y="1420" width="120" height="60" as="geometry" />
        </mxCell>
        <mxCell id="B1aqe8g8T1IVAEfMA5Qo-47" value="HEADING" style="text;html=1;strokeColor=none;fillColor=none;align=center;verticalAlign=middle;whiteSpace=wrap;rounded=0;fontSize=40;labelBorderColor=none;fontStyle=1" vertex="1" parent="1">
          <mxGeometry x="-842.8200000000002" y="1235" width="80" height="25" as="geometry" />
        </mxCell>
        <mxCell id="B1aqe8g8T1IVAEfMA5Qo-48" value="TEXT" style="rounded=0;whiteSpace=wrap;html=1;fillColor=none;fontSize=25;fontStyle=1" vertex="1" parent="1">
          <mxGeometry x="-1014.3200000000002" y="1300" width="423" height="450" as="geometry" />
        </mxCell>
        <mxCell id="B1aqe8g8T1IVAEfMA5Qo-49" value="HEADING" style="text;html=1;strokeColor=none;fillColor=none;align=center;verticalAlign=middle;whiteSpace=wrap;rounded=0;fontSize=40;labelBorderColor=none;fontStyle=1" vertex="1" parent="1">
          <mxGeometry x="-841.5700000000002" y="1880" width="80" height="25" as="geometry" />
        </mxCell>
        <mxCell id="B1aqe8g8T1IVAEfMA5Qo-50" value="TEXT" style="rounded=0;whiteSpace=wrap;html=1;fillColor=none;fontSize=25;fontStyle=1" vertex="1" parent="1">
          <mxGeometry x="-1013.0700000000002" y="1945" width="423" height="450" as="geometry" />
        </mxCell>
        <mxCell id="B1aqe8g8T1IVAEfMA5Qo-56" value="" style="rounded=0;whiteSpace=wrap;html=1;" vertex="1" parent="1">
          <mxGeometry x="-400" y="2550" width="1920" height="1080" as="geometry" />
        </mxCell>
        <mxCell id="B1aqe8g8T1IVAEfMA5Qo-57" value="&lt;font style=&quot;font-size: 20px;&quot;&gt;LOGO&lt;/font&gt;" style="ellipse;whiteSpace=wrap;html=1;aspect=fixed;strokeColor=#666666;fillColor=#f5f5f5;fontStyle=1;fontColor=#333333;" vertex="1" parent="1">
          <mxGeometry x="480" y="2580" width="120" height="120" as="geometry" />
        </mxCell>
        <mxCell id="B1aqe8g8T1IVAEfMA5Qo-58" value="HOME" style="text;html=1;strokeColor=none;fillColor=none;align=center;verticalAlign=middle;whiteSpace=wrap;rounded=0;fontSize=25;labelBorderColor=none;fontStyle=1" vertex="1" parent="1">
          <mxGeometry x="-170" y="2627.5" width="80" height="25" as="geometry" />
        </mxCell>
        <mxCell id="B1aqe8g8T1IVAEfMA5Qo-59" value="ABOUT" style="text;html=1;strokeColor=none;fillColor=none;align=center;verticalAlign=middle;whiteSpace=wrap;rounded=0;fontSize=25;labelBorderColor=none;fontStyle=1" vertex="1" parent="1">
          <mxGeometry x="150" y="2627.5" width="110" height="25" as="geometry" />
        </mxCell>
        <mxCell id="B1aqe8g8T1IVAEfMA5Qo-60" value="WORK" style="text;html=1;strokeColor=none;fillColor=none;align=center;verticalAlign=middle;whiteSpace=wrap;rounded=0;fontSize=25;labelBorderColor=none;fontStyle=1" vertex="1" parent="1">
          <mxGeometry x="915" y="2627.5" width="80" height="25" as="geometry" />
        </mxCell>
        <mxCell id="B1aqe8g8T1IVAEfMA5Qo-61" value="CONTACT" style="text;html=1;strokeColor=none;fillColor=none;align=center;verticalAlign=middle;whiteSpace=wrap;rounded=0;fontSize=25;labelBorderColor=none;fontStyle=1" vertex="1" parent="1">
          <mxGeometry x="1235" y="2627.5" width="110" height="25" as="geometry" />
        </mxCell>
        <mxCell id="B1aqe8g8T1IVAEfMA5Qo-62" value="" style="rounded=0;whiteSpace=wrap;html=1;fillColor=#FFEDFE;strokeColor=none;" vertex="1" parent="1">
          <mxGeometry x="-290" y="2760" width="1700" height="730" as="geometry" />
        </mxCell>
        <mxCell id="B1aqe8g8T1IVAEfMA5Qo-63" value="HEADING" style="text;html=1;strokeColor=none;fillColor=none;align=center;verticalAlign=middle;whiteSpace=wrap;rounded=0;fontSize=40;labelBorderColor=none;fontStyle=1" vertex="1" parent="1">
          <mxGeometry x="500" y="2840" width="80" height="25" as="geometry" />
        </mxCell>
        <mxCell id="B1aqe8g8T1IVAEfMA5Qo-65" value="LINKS" style="text;html=1;strokeColor=none;fillColor=none;align=center;verticalAlign=middle;whiteSpace=wrap;rounded=0;fontSize=25;labelBorderColor=none;fontStyle=1" vertex="1" parent="1">
          <mxGeometry x="505" y="3550" width="110" height="25" as="geometry" />
        </mxCell>
        <mxCell id="B1aqe8g8T1IVAEfMA5Qo-68" value="" style="rounded=0;whiteSpace=wrap;html=1;fillColor=none;" vertex="1" parent="1">
          <mxGeometry x="895" y="2610" width="120" height="60" as="geometry" />
        </mxCell>
        <mxCell id="B1aqe8g8T1IVAEfMA5Qo-69" value="CARD" style="whiteSpace=wrap;html=1;aspect=fixed;fillColor=#e1d5e7;strokeColor=#9673a6;fontSize=25;fontStyle=1" vertex="1" parent="1">
          <mxGeometry x="-190" y="2970" width="390" height="390" as="geometry" />
        </mxCell>
        <mxCell id="B1aqe8g8T1IVAEfMA5Qo-70" value="CARD" style="whiteSpace=wrap;html=1;aspect=fixed;fillColor=#e1d5e7;strokeColor=#9673a6;fontStyle=1;fontSize=25;" vertex="1" parent="1">
          <mxGeometry x="365" y="2970" width="390" height="390" as="geometry" />
        </mxCell>
        <mxCell id="B1aqe8g8T1IVAEfMA5Qo-71" value="CARD" style="whiteSpace=wrap;html=1;aspect=fixed;fillColor=#e1d5e7;strokeColor=#9673a6;fontStyle=1;fontSize=25;" vertex="1" parent="1">
          <mxGeometry x="925" y="2970" width="390" height="390" as="geometry" />
        </mxCell>
        <mxCell id="B1aqe8g8T1IVAEfMA5Qo-114" style="edgeStyle=orthogonalEdgeStyle;rounded=0;orthogonalLoop=1;jettySize=auto;html=1;entryX=0.5;entryY=0;entryDx=0;entryDy=0;fillColor=#e1d5e7;strokeColor=#9673a6;strokeWidth=8;" edge="1" parent="1" source="B1aqe8g8T1IVAEfMA5Qo-72" target="B1aqe8g8T1IVAEfMA5Qo-56">
          <mxGeometry relative="1" as="geometry">
            <Array as="points">
              <mxPoint x="1580" y="2490" />
              <mxPoint x="560" y="2490" />
            </Array>
          </mxGeometry>
        </mxCell>
        <mxCell id="B1aqe8g8T1IVAEfMA5Qo-72" value="" style="rounded=0;whiteSpace=wrap;html=1;rotation=-90;" vertex="1" parent="1">
          <mxGeometry x="990" y="2786.58" width="1866.25" height="568.12" as="geometry" />
        </mxCell>
        <mxCell id="B1aqe8g8T1IVAEfMA5Qo-73" value="&lt;font style=&quot;font-size: 20px;&quot;&gt;LOGO&lt;/font&gt;" style="ellipse;whiteSpace=wrap;html=1;aspect=fixed;strokeColor=#666666;fillColor=#f5f5f5;fontStyle=1;fontColor=#333333;" vertex="1" parent="1">
          <mxGeometry x="2064.0499999999997" y="2180" width="120" height="120" as="geometry" />
        </mxCell>
        <mxCell id="B1aqe8g8T1IVAEfMA5Qo-74" value="MENU" style="rounded=0;whiteSpace=wrap;html=1;fontSize=25;fontStyle=1" vertex="1" parent="1">
          <mxGeometry x="1664.05" y="2200" width="100" height="60" as="geometry" />
        </mxCell>
        <mxCell id="B1aqe8g8T1IVAEfMA5Qo-75" value="" style="rounded=0;whiteSpace=wrap;html=1;fillColor=#FFEDFE;strokeColor=none;" vertex="1" parent="1">
          <mxGeometry x="1664.05" y="2337.5" width="520" height="1642.5" as="geometry" />
        </mxCell>
        <mxCell id="B1aqe8g8T1IVAEfMA5Qo-76" value="HEADING" style="text;html=1;strokeColor=none;fillColor=none;align=center;verticalAlign=middle;whiteSpace=wrap;rounded=0;fontSize=40;labelBorderColor=none;fontStyle=1" vertex="1" parent="1">
          <mxGeometry x="1882.8" y="2405" width="80" height="25" as="geometry" />
        </mxCell>
        <mxCell id="B1aqe8g8T1IVAEfMA5Qo-81" value="CARD" style="whiteSpace=wrap;html=1;aspect=fixed;fillColor=#e1d5e7;strokeColor=#9673a6;fontStyle=1;fontSize=25;" vertex="1" parent="1">
          <mxGeometry x="1727.7999999999997" y="2510" width="390" height="390" as="geometry" />
        </mxCell>
        <mxCell id="B1aqe8g8T1IVAEfMA5Qo-82" value="CARD" style="whiteSpace=wrap;html=1;aspect=fixed;fillColor=#e1d5e7;strokeColor=#9673a6;fontStyle=1;fontSize=25;" vertex="1" parent="1">
          <mxGeometry x="1727.7999999999997" y="3010" width="390" height="390" as="geometry" />
        </mxCell>
        <mxCell id="B1aqe8g8T1IVAEfMA5Qo-83" value="CARD" style="whiteSpace=wrap;html=1;aspect=fixed;fillColor=#e1d5e7;strokeColor=#9673a6;fontStyle=1;fontSize=25;" vertex="1" parent="1">
          <mxGeometry x="1727.7999999999997" y="3500" width="390" height="390" as="geometry" />
        </mxCell>
        <mxCell id="B1aqe8g8T1IVAEfMA5Qo-84" value="" style="rounded=0;whiteSpace=wrap;html=1;" vertex="1" parent="1">
          <mxGeometry x="-400" y="3760" width="1920" height="1080" as="geometry" />
        </mxCell>
        <mxCell id="B1aqe8g8T1IVAEfMA5Qo-85" value="&lt;font style=&quot;font-size: 20px;&quot;&gt;LOGO&lt;/font&gt;" style="ellipse;whiteSpace=wrap;html=1;aspect=fixed;strokeColor=#666666;fillColor=#f5f5f5;fontStyle=1;fontColor=#333333;" vertex="1" parent="1">
          <mxGeometry x="480" y="3790" width="120" height="120" as="geometry" />
        </mxCell>
        <mxCell id="B1aqe8g8T1IVAEfMA5Qo-86" value="HOME" style="text;html=1;strokeColor=none;fillColor=none;align=center;verticalAlign=middle;whiteSpace=wrap;rounded=0;fontSize=25;labelBorderColor=none;fontStyle=1" vertex="1" parent="1">
          <mxGeometry x="-170" y="3837.5" width="80" height="25" as="geometry" />
        </mxCell>
        <mxCell id="B1aqe8g8T1IVAEfMA5Qo-87" value="ABOUT" style="text;html=1;strokeColor=none;fillColor=none;align=center;verticalAlign=middle;whiteSpace=wrap;rounded=0;fontSize=25;labelBorderColor=none;fontStyle=1" vertex="1" parent="1">
          <mxGeometry x="150" y="3837.5" width="110" height="25" as="geometry" />
        </mxCell>
        <mxCell id="B1aqe8g8T1IVAEfMA5Qo-88" value="WORK" style="text;html=1;strokeColor=none;fillColor=none;align=center;verticalAlign=middle;whiteSpace=wrap;rounded=0;fontSize=25;labelBorderColor=none;fontStyle=1" vertex="1" parent="1">
          <mxGeometry x="915" y="3837.5" width="80" height="25" as="geometry" />
        </mxCell>
        <mxCell id="B1aqe8g8T1IVAEfMA5Qo-89" value="CONTACT" style="text;html=1;strokeColor=none;fillColor=none;align=center;verticalAlign=middle;whiteSpace=wrap;rounded=0;fontSize=25;labelBorderColor=none;fontStyle=1" vertex="1" parent="1">
          <mxGeometry x="1235" y="3837.5" width="110" height="25" as="geometry" />
        </mxCell>
        <mxCell id="B1aqe8g8T1IVAEfMA5Qo-90" value="" style="rounded=0;whiteSpace=wrap;html=1;fillColor=#FFEDFE;strokeColor=none;" vertex="1" parent="1">
          <mxGeometry x="-290" y="3970" width="1700" height="730" as="geometry" />
        </mxCell>
        <mxCell id="B1aqe8g8T1IVAEfMA5Qo-91" value="HEADING" style="text;html=1;strokeColor=none;fillColor=none;align=center;verticalAlign=middle;whiteSpace=wrap;rounded=0;fontSize=40;labelBorderColor=none;fontStyle=1" vertex="1" parent="1">
          <mxGeometry x="500" y="4050" width="80" height="25" as="geometry" />
        </mxCell>
        <mxCell id="B1aqe8g8T1IVAEfMA5Qo-92" value="LINKS" style="text;html=1;strokeColor=none;fillColor=none;align=center;verticalAlign=middle;whiteSpace=wrap;rounded=0;fontSize=25;labelBorderColor=none;fontStyle=1" vertex="1" parent="1">
          <mxGeometry x="505" y="4760" width="110" height="25" as="geometry" />
        </mxCell>
        <mxCell id="B1aqe8g8T1IVAEfMA5Qo-93" value="" style="rounded=0;whiteSpace=wrap;html=1;fillColor=none;" vertex="1" parent="1">
          <mxGeometry x="1217.5" y="3820" width="145" height="60" as="geometry" />
        </mxCell>
        <mxCell id="B1aqe8g8T1IVAEfMA5Qo-97" value="FORM" style="rounded=0;whiteSpace=wrap;html=1;fillColor=#f5f5f5;fontColor=#333333;strokeColor=#666666;fontStyle=1;fontSize=25;" vertex="1" parent="1">
          <mxGeometry x="80" y="4140" width="960" height="490" as="geometry" />
        </mxCell>
        <mxCell id="B1aqe8g8T1IVAEfMA5Qo-115" style="edgeStyle=orthogonalEdgeStyle;rounded=0;orthogonalLoop=1;jettySize=auto;html=1;entryX=0.5;entryY=0;entryDx=0;entryDy=0;fillColor=#e1d5e7;strokeColor=#9673a6;strokeWidth=8;" edge="1" parent="1" source="B1aqe8g8T1IVAEfMA5Qo-98" target="B1aqe8g8T1IVAEfMA5Qo-84">
          <mxGeometry relative="1" as="geometry">
            <Array as="points">
              <mxPoint x="-435" y="3720" />
              <mxPoint x="560" y="3720" />
            </Array>
          </mxGeometry>
        </mxCell>
        <mxCell id="B1aqe8g8T1IVAEfMA5Qo-98" value="" style="rounded=0;whiteSpace=wrap;html=1;rotation=-90;" vertex="1" parent="1">
          <mxGeometry x="-1260" y="4009.2299999999996" width="1011.55" height="568.12" as="geometry" />
        </mxCell>
        <mxCell id="B1aqe8g8T1IVAEfMA5Qo-99" value="&lt;font style=&quot;font-size: 20px;&quot;&gt;LOGO&lt;/font&gt;" style="ellipse;whiteSpace=wrap;html=1;aspect=fixed;strokeColor=#666666;fillColor=#f5f5f5;fontStyle=1;fontColor=#333333;" vertex="1" parent="1">
          <mxGeometry x="-613.3000000000004" y="3830" width="120" height="120" as="geometry" />
        </mxCell>
        <mxCell id="B1aqe8g8T1IVAEfMA5Qo-100" value="MENU" style="rounded=0;whiteSpace=wrap;html=1;fontSize=25;fontStyle=1" vertex="1" parent="1">
          <mxGeometry x="-1013.3000000000002" y="3850" width="100" height="60" as="geometry" />
        </mxCell>
        <mxCell id="B1aqe8g8T1IVAEfMA5Qo-101" value="" style="rounded=0;whiteSpace=wrap;html=1;fillColor=#FFEDFE;strokeColor=none;" vertex="1" parent="1">
          <mxGeometry x="-1013.3000000000002" y="3987.5" width="520" height="782.5" as="geometry" />
        </mxCell>
        <mxCell id="B1aqe8g8T1IVAEfMA5Qo-102" value="HEADING" style="text;html=1;strokeColor=none;fillColor=none;align=center;verticalAlign=middle;whiteSpace=wrap;rounded=0;fontSize=40;labelBorderColor=none;fontStyle=1" vertex="1" parent="1">
          <mxGeometry x="-794.5500000000002" y="4055" width="80" height="25" as="geometry" />
        </mxCell>
        <mxCell id="B1aqe8g8T1IVAEfMA5Qo-106" value="FORM" style="rounded=0;whiteSpace=wrap;html=1;fillColor=#f5f5f5;fontColor=#333333;strokeColor=#666666;fontStyle=1;fontSize=25;" vertex="1" parent="1">
          <mxGeometry x="-987.0500000000002" y="4130" width="465" height="570" as="geometry" />
        </mxCell>
        <mxCell id="B1aqe8g8T1IVAEfMA5Qo-108" style="edgeStyle=orthogonalEdgeStyle;rounded=0;orthogonalLoop=1;jettySize=auto;html=1;entryX=0.488;entryY=0;entryDx=0;entryDy=0;entryPerimeter=0;strokeWidth=8;fillColor=#e1d5e7;strokeColor=#9673a6;" edge="1" parent="1" source="B1aqe8g8T1IVAEfMA5Qo-34" target="B1aqe8g8T1IVAEfMA5Qo-23">
          <mxGeometry relative="1" as="geometry">
            <Array as="points">
              <mxPoint x="-459" y="1300" />
              <mxPoint x="537" y="1300" />
            </Array>
          </mxGeometry>
        </mxCell>
      </root>
    </mxGraphModel>
  </diagram>
</mxfile>
